<?xml version="1.0" encoding="utf-8"?>
<!-- Generator: Adobe Illustrator 16.0.0, SVG Export Plug-In . SVG Version: 6.00 Build 0)  -->
<svg version="1.2" baseProfile="tiny" id="Layer_1" xmlns="http://www.w3.org/2000/svg" xmlns:xlink="http://www.w3.org/1999/xlink"
	 x="0px" y="0px" width="595.28px" height="841.89px" viewBox="0 0 595.28 841.89" xml:space="preserve">
<g>
	<path d="M478.529,477.163c0,13.719-11.121,24.839-24.838,24.839H141.59c-13.718,0-24.839-11.12-24.839-24.839V364.727
		c0-13.718,11.121-24.839,24.839-24.839h312.102c13.717,0,24.838,11.121,24.838,24.839V477.163z"/>
	<g>
		<path fill="#FFFFFF" d="M206.379,371.098l14.608,98.239h-26.107l-1.371-17.658h-9.138l-1.536,17.658h-26.41l13.031-98.239H206.379
			z M192.84,434.265c-1.293-11.127-2.59-24.88-3.891-41.262c-2.603,18.812-4.237,32.565-4.903,41.262H192.84z"/>
		<path fill="#FFFFFF" d="M304.148,371.098v98.239h-22.33l-0.03-66.322l-8.89,66.322h-15.837l-9.375-64.805l-0.03,64.805h-22.33
			v-98.239h33.055c0.98,5.907,1.991,12.868,3.032,20.885l3.627,24.988l5.871-45.873H304.148z"/>
		<path fill="#FFFFFF" d="M314.403,371.098h19.113c12.338,0,20.68,0.567,25.029,1.699c4.348,1.133,7.654,2.994,9.922,5.583
			c2.264,2.589,3.68,5.471,4.246,8.646s0.85,9.415,0.85,18.719v34.404c0,8.82-0.414,14.715-1.244,17.688
			c-0.828,2.975-2.275,5.301-4.338,6.979c-2.063,1.68-4.611,2.852-7.645,3.52c-3.035,0.668-7.607,1.002-13.715,1.002h-32.219
			V371.098z M339.948,387.906v64.622c3.68,0,5.945-0.738,6.795-2.215s1.275-5.492,1.275-12.045v-38.166
			c0-4.449-0.143-7.302-0.426-8.556s-0.93-2.174-1.941-2.761C344.64,388.2,342.739,387.906,339.948,387.906z"/>
		<path fill="#FFFFFF" d="M406.878,371.098v23.256c2.021-2.352,4.277-4.104,6.766-5.261c2.488-1.154,5.188-1.732,8.1-1.732
			c3.357,0,6.271,0.525,8.738,1.577c2.467,1.053,4.348,2.528,5.643,4.43s2.074,3.762,2.338,5.582
			c0.262,1.82,0.393,5.704,0.393,11.65v36.286c0,5.906-0.393,10.305-1.182,13.197s-2.641,5.4-5.553,7.523
			c-2.912,2.125-6.371,3.186-10.377,3.186c-2.871,0-5.551-0.627-8.039-1.885c-2.488-1.256-4.764-3.141-6.826-5.654l-1.578,6.084
			h-22.936v-98.239H406.878z M414.341,411.692c0-4.166-0.264-6.888-0.789-8.161c-0.525-1.274-1.557-1.912-3.094-1.912
			c-1.498,0-2.469,0.557-2.912,1.669c-0.447,1.113-0.668,3.914-0.668,8.404v34.707c0,4.33,0.252,7.1,0.758,8.313
			c0.506,1.215,1.508,1.822,3.004,1.822c1.537,0,2.539-0.627,3.004-1.883c0.465-1.252,0.697-4.268,0.697-9.041V411.692z"/>
	</g>
</g>
</svg>
